<svg xmlns="http://www.w3.org/2000/svg" xmlns:xlink="http://www.w3.org/1999/xlink" width="500" zoomAndPan="magnify" viewBox="0 0 375 374.999991" height="500" preserveAspectRatio="xMidYMid meet" version="1.0"><defs><clipPath id="0f30b37546"><path d="M 36.222656 58.199219 L 184.351562 58.199219 L 184.351562 350.855469 L 36.222656 350.855469 Z M 36.222656 58.199219 " clip-rule="nonzero"/></clipPath><clipPath id="530b9b65b0"><path d="M 40.648438 332.398438 C 40.273438 270.375 38.023438 225.523438 37.425781 196.726562 C 36.898438 174.148438 36.675781 153.675781 36.824219 136.5 C 36.976562 123.675781 37.273438 113.550781 37.875 102.824219 C 38.476562 93 39.675781 78.449219 40.351562 74.699219 C 40.574219 73.800781 40.574219 73.425781 40.949219 72.976562 C 41.25 72.523438 42 72.148438 42.523438 72.226562 C 43.125 72.226562 43.726562 72.601562 44.324219 73.5 C 46.726562 77.324219 48.300781 98.550781 51.074219 110.175781 C 53.625 121.050781 56.476562 130.574219 60.074219 141.300781 C 64.125 153.148438 69.074219 165.976562 74.324219 178.199219 C 79.800781 190.726562 85.351562 202.5 92.25 215.625 C 100.273438 230.925781 110.398438 247.800781 120.226562 264.074219 C 130.574219 281.023438 143.476562 301.351562 153.148438 315.449219 C 160.125 325.726562 167.101562 336.074219 172.050781 341.398438 C 174.675781 344.101562 177.601562 347.175781 178.800781 346.875 C 179.398438 346.726562 179.550781 345.675781 179.773438 344.625 C 180.375 342.148438 180.523438 335.476562 180.449219 331.726562 C 180.449219 328.875 180.300781 327.226562 179.851562 324.148438 C 179.023438 319.050781 177.300781 312.148438 175.351562 304.199219 C 172.351562 292.199219 165.976562 271.726562 163.050781 259.125 C 161.023438 250.273438 159.898438 244.125 158.550781 236.175781 C 157.125 227.550781 155.773438 219.601562 154.726562 209.175781 C 153.226562 195 152.023438 175.648438 151.273438 158.851562 C 150.601562 141.976562 150.300781 121.125 150.601562 108.226562 C 150.824219 100.199219 151.199219 95.398438 151.949219 88.726562 C 152.699219 81.523438 157.125 70.875 155.324219 66.523438 C 154.273438 63.976562 149.925781 63.449219 149.175781 62.101562 C 148.800781 61.351562 148.726562 60.601562 149.023438 60.074219 C 149.324219 59.476562 150.601562 58.800781 151.273438 58.800781 C 151.875 58.875 152.625 59.476562 152.925781 60 C 153.148438 60.523438 153.148438 61.5 152.851562 62.023438 C 152.550781 62.476562 151.726562 63 151.125 63.074219 C 150.523438 63.074219 149.625 62.773438 149.324219 62.25 C 148.949219 61.726562 148.875 60.226562 149.25 59.699219 C 149.550781 59.175781 150.300781 58.726562 151.050781 58.800781 C 152.625 58.875 156.898438 62.175781 158.175781 63.675781 C 158.925781 64.5 159.226562 64.800781 159.375 66.074219 C 159.898438 69.75 156.226562 81.675781 155.324219 88.949219 C 154.5 95.625 154.199219 100.273438 153.976562 108.226562 C 153.675781 121.050781 154.050781 141.898438 154.726562 158.699219 C 155.398438 175.425781 156.601562 194.625 158.101562 208.726562 C 159.148438 219.074219 160.5 226.949219 161.925781 235.5 C 163.273438 243.449219 164.25 249.074219 166.425781 258.300781 C 169.800781 272.925781 179.023438 303.523438 181.574219 314.398438 C 182.625 318.824219 183 320.324219 183.449219 323.773438 C 184.050781 327.976562 184.351562 333.75 184.351562 337.726562 C 184.351562 340.875 184.199219 343.875 183.75 345.898438 C 183.449219 347.175781 183.148438 348.074219 182.625 348.898438 C 182.101562 349.574219 181.574219 350.324219 180.75 350.625 C 179.773438 350.925781 178.199219 350.699219 177.074219 350.324219 C 175.875 349.949219 174.976562 349.199219 173.773438 348.148438 C 171.75 346.351562 169.5 343.574219 166.726562 340.199219 C 162.300781 334.574219 156.601562 326.625 150.300781 317.324219 C 141.074219 303.75 127.726562 282.824219 117.375 265.800781 C 107.398438 249.449219 97.273438 232.5 89.25 217.125 C 82.273438 203.925781 76.648438 192.148438 71.175781 179.476562 C 65.851562 167.175781 60.300781 152.324219 56.773438 142.351562 C 54.449219 135.75 53.324219 131.925781 51.523438 125.699219 C 49.351562 117.824219 46.726562 107.550781 44.925781 98.773438 C 43.125 90.300781 39.300781 77.175781 40.574219 73.875 C 40.949219 72.75 41.925781 72.148438 42.523438 72.226562 C 43.199219 72.226562 44.023438 72.824219 44.398438 73.949219 C 46.050781 78.375 41.476562 99.300781 40.726562 112.050781 C 40.050781 124.800781 40.273438 137.175781 40.273438 150.601562 C 40.273438 165.300781 40.351562 178.351562 40.800781 196.574219 C 41.398438 223.273438 43.574219 270.300781 44.101562 295.351562 C 44.398438 310.648438 45.375 328.273438 44.324219 332.398438 C 44.101562 333.300781 43.949219 333.675781 43.574219 333.976562 C 43.199219 334.199219 42.675781 334.425781 42.300781 334.273438 C 41.699219 334.125 40.648438 332.398438 40.648438 332.398438 " clip-rule="nonzero"/></clipPath><clipPath id="5be143d4b3"><path d="M 0.480469 0.558594 L 148.351562 0.558594 L 148.351562 292.855469 L 0.480469 292.855469 Z M 0.480469 0.558594 " clip-rule="nonzero"/></clipPath><clipPath id="b2742b2070"><path d="M 4.648438 274.398438 C 4.273438 212.375 2.023438 167.523438 1.425781 138.726562 C 0.898438 116.148438 0.675781 95.675781 0.824219 78.5 C 0.976562 65.675781 1.273438 55.550781 1.875 44.824219 C 2.476562 35 3.675781 20.449219 4.351562 16.699219 C 4.574219 15.800781 4.574219 15.425781 4.949219 14.976562 C 5.25 14.523438 6 14.148438 6.523438 14.226562 C 7.125 14.226562 7.726562 14.601562 8.324219 15.5 C 10.726562 19.324219 12.300781 40.550781 15.074219 52.175781 C 17.625 63.050781 20.476562 72.574219 24.074219 83.300781 C 28.125 95.148438 33.074219 107.976562 38.324219 120.199219 C 43.800781 132.726562 49.351562 144.5 56.25 157.625 C 64.273438 172.925781 74.398438 189.800781 84.226562 206.074219 C 94.574219 223.023438 107.476562 243.351562 117.148438 257.449219 C 124.125 267.726562 131.101562 278.074219 136.050781 283.398438 C 138.675781 286.101562 141.601562 289.175781 142.800781 288.875 C 143.398438 288.726562 143.550781 287.675781 143.773438 286.625 C 144.375 284.148438 144.523438 277.476562 144.449219 273.726562 C 144.449219 270.875 144.300781 269.226562 143.851562 266.148438 C 143.023438 261.050781 141.300781 254.148438 139.351562 246.199219 C 136.351562 234.199219 129.976562 213.726562 127.050781 201.125 C 125.023438 192.273438 123.898438 186.125 122.550781 178.175781 C 121.125 169.550781 119.773438 161.601562 118.726562 151.175781 C 117.226562 137 116.023438 117.648438 115.273438 100.851562 C 114.601562 83.976562 114.300781 63.125 114.601562 50.226562 C 114.824219 42.199219 115.199219 37.398438 115.949219 30.726562 C 116.699219 23.523438 121.125 12.875 119.324219 8.523438 C 118.273438 5.976562 113.925781 5.449219 113.175781 4.101562 C 112.800781 3.351562 112.726562 2.601562 113.023438 2.074219 C 113.324219 1.476562 114.601562 0.800781 115.273438 0.800781 C 115.875 0.875 116.625 1.476562 116.925781 2 C 117.148438 2.523438 117.148438 3.5 116.851562 4.023438 C 116.550781 4.476562 115.726562 5 115.125 5.074219 C 114.523438 5.074219 113.625 4.773438 113.324219 4.25 C 112.949219 3.726562 112.875 2.226562 113.25 1.699219 C 113.550781 1.175781 114.300781 0.726562 115.050781 0.800781 C 116.625 0.875 120.898438 4.175781 122.175781 5.675781 C 122.925781 6.5 123.226562 6.800781 123.375 8.074219 C 123.898438 11.75 120.226562 23.675781 119.324219 30.949219 C 118.5 37.625 118.199219 42.273438 117.976562 50.226562 C 117.675781 63.050781 118.050781 83.898438 118.726562 100.699219 C 119.398438 117.425781 120.601562 136.625 122.101562 150.726562 C 123.148438 161.074219 124.5 168.949219 125.925781 177.5 C 127.273438 185.449219 128.25 191.074219 130.425781 200.300781 C 133.800781 214.925781 143.023438 245.523438 145.574219 256.398438 C 146.625 260.824219 147 262.324219 147.449219 265.773438 C 148.050781 269.976562 148.351562 275.75 148.351562 279.726562 C 148.351562 282.875 148.199219 285.875 147.75 287.898438 C 147.449219 289.175781 147.148438 290.074219 146.625 290.898438 C 146.101562 291.574219 145.574219 292.324219 144.75 292.625 C 143.773438 292.925781 142.199219 292.699219 141.074219 292.324219 C 139.875 291.949219 138.976562 291.199219 137.773438 290.148438 C 135.75 288.351562 133.5 285.574219 130.726562 282.199219 C 126.300781 276.574219 120.601562 268.625 114.300781 259.324219 C 105.074219 245.75 91.726562 224.824219 81.375 207.800781 C 71.398438 191.449219 61.273438 174.5 53.25 159.125 C 46.273438 145.925781 40.648438 134.148438 35.175781 121.476562 C 29.851562 109.175781 24.300781 94.324219 20.773438 84.351562 C 18.449219 77.75 17.324219 73.925781 15.523438 67.699219 C 13.351562 59.824219 10.726562 49.550781 8.925781 40.773438 C 7.125 32.300781 3.300781 19.175781 4.574219 15.875 C 4.949219 14.75 5.925781 14.148438 6.523438 14.226562 C 7.199219 14.226562 8.023438 14.824219 8.398438 15.949219 C 10.050781 20.375 5.476562 41.300781 4.726562 54.050781 C 4.050781 66.800781 4.273438 79.175781 4.273438 92.601562 C 4.273438 107.300781 4.351562 120.351562 4.800781 138.574219 C 5.398438 165.273438 7.574219 212.300781 8.101562 237.351562 C 8.398438 252.648438 9.375 270.273438 8.324219 274.398438 C 8.101562 275.300781 7.949219 275.675781 7.574219 275.976562 C 7.199219 276.199219 6.675781 276.425781 6.300781 276.273438 C 5.699219 276.125 4.648438 274.398438 4.648438 274.398438 " clip-rule="nonzero"/></clipPath><clipPath id="8df65e35cb"><rect x="0" width="149" y="0" height="293"/></clipPath><clipPath id="d08e78d7af"><path d="M 186.261719 74.160156 L 208.257812 74.160156 L 208.257812 284.609375 L 186.261719 284.609375 Z M 186.261719 74.160156 " clip-rule="nonzero"/></clipPath><clipPath id="233d3ecf79"><path d="M 190.351562 75.976562 C 191.25 206.773438 192.601562 219 193.648438 230.625 C 194.398438 239.324219 195.074219 246.601562 196.050781 253.351562 C 196.800781 258.898438 197.398438 264.375 198.523438 268.425781 C 199.425781 271.351562 200.101562 273.523438 201.601562 275.625 C 203.175781 277.875 207 279.976562 207.824219 281.324219 C 208.125 281.851562 208.199219 282.148438 208.199219 282.601562 C 208.125 283.050781 207.976562 283.5 207.675781 283.875 C 207.300781 284.25 206.398438 284.625 205.875 284.550781 C 205.425781 284.550781 204.976562 284.324219 204.601562 284.023438 C 204.300781 283.648438 203.925781 282.75 204 282.148438 C 204.074219 281.550781 204.675781 280.800781 205.199219 280.574219 C 205.726562 280.351562 206.699219 280.425781 207.148438 280.726562 C 207.675781 281.023438 208.199219 281.773438 208.199219 282.375 C 208.125 283.050781 207.375 284.25 206.773438 284.476562 C 206.25 284.699219 205.5 284.476562 204.824219 284.175781 C 203.851562 283.726562 202.875 282.75 201.898438 281.773438 C 200.699219 280.574219 199.199219 279 198.226562 277.351562 C 197.25 275.773438 196.726562 274.351562 196.125 272.25 C 195.074219 269.101562 194.324219 264.898438 193.5 259.875 C 192.300781 252.226562 191.25 241.425781 190.273438 230.925781 C 189.074219 218.398438 187.949219 206.851562 187.273438 189.824219 C 186.148438 162 186.074219 92.25 186.675781 79.574219 C 186.75 76.949219 186.449219 75.601562 187.125 74.773438 C 187.574219 74.25 188.625 74.101562 189.148438 74.25 C 189.675781 74.476562 190.351562 75.976562 190.351562 75.976562 " clip-rule="nonzero"/></clipPath><clipPath id="f8e413ce39"><path d="M 0.261719 0.160156 L 22.257812 0.160156 L 22.257812 210.609375 L 0.261719 210.609375 Z M 0.261719 0.160156 " clip-rule="nonzero"/></clipPath><clipPath id="dc016be7cf"><path d="M 4.351562 1.976562 C 5.25 132.773438 6.601562 145 7.648438 156.625 C 8.398438 165.324219 9.074219 172.601562 10.050781 179.351562 C 10.800781 184.898438 11.398438 190.375 12.523438 194.425781 C 13.425781 197.351562 14.101562 199.523438 15.601562 201.625 C 17.175781 203.875 21 205.976562 21.824219 207.324219 C 22.125 207.851562 22.199219 208.148438 22.199219 208.601562 C 22.125 209.050781 21.976562 209.5 21.675781 209.875 C 21.300781 210.25 20.398438 210.625 19.875 210.550781 C 19.425781 210.550781 18.976562 210.324219 18.601562 210.023438 C 18.300781 209.648438 17.925781 208.75 18 208.148438 C 18.074219 207.550781 18.675781 206.800781 19.199219 206.574219 C 19.726562 206.351562 20.699219 206.425781 21.148438 206.726562 C 21.675781 207.023438 22.199219 207.773438 22.199219 208.375 C 22.125 209.050781 21.375 210.25 20.773438 210.476562 C 20.25 210.699219 19.5 210.476562 18.824219 210.175781 C 17.851562 209.726562 16.875 208.75 15.898438 207.773438 C 14.699219 206.574219 13.199219 205 12.226562 203.351562 C 11.25 201.773438 10.726562 200.351562 10.125 198.25 C 9.074219 195.101562 8.324219 190.898438 7.5 185.875 C 6.300781 178.226562 5.25 167.425781 4.273438 156.925781 C 3.074219 144.398438 1.949219 132.851562 1.273438 115.824219 C 0.148438 88 0.0742188 18.25 0.675781 5.574219 C 0.75 2.949219 0.449219 1.601562 1.125 0.773438 C 1.574219 0.25 2.625 0.101562 3.148438 0.25 C 3.675781 0.476562 4.351562 1.976562 4.351562 1.976562 " clip-rule="nonzero"/></clipPath><clipPath id="c243f80525"><rect x="0" width="23" y="0" height="211"/></clipPath><clipPath id="c9308449e2"><path d="M 188.238281 75 L 320.558594 75 L 320.558594 279.386719 L 188.238281 279.386719 Z M 188.238281 75 " clip-rule="nonzero"/></clipPath><clipPath id="f36c0b7b75"><path d="M 190.125 76.574219 C 207.75 74.925781 220.125 75.300781 226.351562 75.523438 C 230.023438 75.675781 231.75 75.675781 235.199219 76.050781 C 240.148438 76.648438 247.574219 77.625 253.425781 78.976562 C 258.898438 80.25 264.898438 82.199219 269.324219 83.851562 C 272.550781 85.125 275.175781 86.25 277.574219 87.675781 C 279.601562 88.800781 281.550781 90 282.898438 91.5 C 284.023438 92.699219 285.074219 94.273438 285.375 95.550781 C 285.601562 96.523438 285.523438 97.425781 285.226562 98.324219 C 284.851562 99.300781 284.023438 100.351562 283.199219 101.175781 C 282.375 102 281.851562 102.375 280.125 103.351562 C 273.75 106.875 243.226562 117.601562 232.648438 122.699219 C 227.175781 125.398438 223.800781 127.273438 220.574219 129.75 C 218.023438 131.625 216.074219 135 214.425781 135.75 C 213.523438 136.199219 212.550781 136.351562 212.023438 135.976562 C 211.425781 135.601562 210.824219 133.949219 211.125 133.273438 C 211.425781 132.601562 212.476562 132.601562 214.050781 132.226562 C 219.449219 130.875 239.023438 128.625 250.5 127.425781 C 260.699219 126.300781 270.675781 125.25 279.601562 124.875 C 287.101562 124.574219 295.648438 124.351562 300.300781 125.101562 C 302.773438 125.398438 303.898438 125.773438 305.851562 126.675781 C 308.398438 127.800781 311.851562 129.523438 313.949219 131.773438 C 316.199219 134.101562 317.851562 137.398438 318.824219 140.476562 C 319.875 143.476562 320.101562 147.148438 320.175781 150 C 320.25 152.25 320.023438 153.898438 319.574219 156.074219 C 319.050781 158.699219 318.300781 161.101562 317.023438 164.398438 C 314.925781 169.648438 311.101562 177.523438 307.273438 184.050781 C 303.074219 191.101562 297 199.273438 292.5 205.050781 C 289.125 209.398438 286.800781 211.949219 283.050781 215.925781 C 278.175781 221.175781 272.101562 227.476562 265.5 233.324219 C 257.773438 240 248.25 247.425781 239.25 253.574219 C 230.398438 259.574219 219.148438 264.75 212.023438 269.625 C 207.074219 273 202.574219 278.699219 200.023438 279.148438 C 199.050781 279.375 198.148438 278.925781 197.699219 278.476562 C 197.398438 278.175781 197.25 277.648438 197.25 277.273438 C 197.324219 276.75 197.699219 275.925781 198.226562 275.550781 C 198.675781 275.25 199.574219 275.175781 200.101562 275.398438 C 200.625 275.625 201.226562 276.300781 201.300781 276.898438 C 201.449219 277.425781 201.074219 278.324219 200.773438 278.699219 C 200.476562 279 200.023438 279.300781 199.648438 279.300781 C 198.976562 279.300781 197.699219 278.699219 197.476562 278.101562 C 197.175781 277.5 197.476562 276.601562 198 275.699219 C 199.273438 273.675781 203.699219 270.976562 207.75 268.273438 C 213.75 264.226562 224.625 258.75 231.300781 254.550781 C 236.476562 251.398438 239.925781 249.074219 244.648438 245.625 C 250.425781 241.425781 257.25 236.101562 263.175781 230.851562 C 269.175781 225.449219 275.699219 218.851562 280.5 213.75 C 284.175781 209.851562 286.5 207.300781 289.800781 203.023438 C 294.226562 197.324219 300.226562 189.300781 304.273438 182.398438 C 308.023438 176.101562 311.699219 168.375 313.726562 163.351562 C 315 160.351562 315.675781 158.101562 316.199219 155.699219 C 316.574219 153.75 316.800781 152.25 316.800781 150.226562 C 316.726562 147.675781 316.574219 144.449219 315.75 141.75 C 314.925781 139.199219 313.574219 136.425781 311.773438 134.398438 C 309.976562 132.449219 307.125 130.949219 304.949219 129.898438 C 303.226562 129.148438 301.726562 128.773438 300 128.476562 C 298.125 128.101562 296.625 127.949219 294 127.875 C 288.675781 127.800781 279.601562 128.101562 270.148438 128.925781 C 256.199219 130.199219 225.675781 136.050781 218.398438 135.976562 C 216.449219 135.976562 215.851562 135.375 214.726562 135.375 C 213.75 135.449219 212.625 136.273438 212.023438 135.976562 C 211.425781 135.675781 210.898438 134.476562 210.976562 133.800781 C 210.976562 133.125 211.425781 132.601562 212.175781 131.773438 C 214.050781 129.75 219.523438 125.925781 224.175781 123.148438 C 229.726562 119.925781 236.25 117.226562 243.523438 114.074219 C 252.523438 110.175781 268.125 104.699219 274.273438 101.773438 C 277.050781 100.5 278.851562 99.601562 280.125 98.550781 C 280.875 97.949219 281.699219 97.5 281.699219 96.75 C 281.773438 95.625 279.976562 93.75 278.625 92.476562 C 277.050781 91.050781 275.324219 90.148438 272.699219 88.949219 C 268.125 86.851562 259.273438 84 252.75 82.425781 C 246.75 80.925781 239.851562 80.101562 234.976562 79.648438 C 231.601562 79.273438 230.023438 79.273438 226.273438 79.199219 C 219.601562 79.050781 204.601562 79.050781 198.148438 79.5 C 194.699219 79.726562 192 81 190.425781 80.398438 C 189.449219 80.101562 188.550781 79.273438 188.550781 78.601562 C 188.476562 77.925781 190.125 76.574219 190.125 76.574219 " clip-rule="nonzero"/></clipPath><clipPath id="2bc1388db9"><path d="M 0.398438 0 L 132.398438 0 L 132.398438 204.386719 L 0.398438 204.386719 Z M 0.398438 0 " clip-rule="nonzero"/></clipPath><clipPath id="99287f128f"><path d="M 2.125 1.574219 C 19.75 -0.0742188 32.125 0.300781 38.351562 0.523438 C 42.023438 0.675781 43.75 0.675781 47.199219 1.050781 C 52.148438 1.648438 59.574219 2.625 65.425781 3.976562 C 70.898438 5.25 76.898438 7.199219 81.324219 8.851562 C 84.550781 10.125 87.175781 11.25 89.574219 12.675781 C 91.601562 13.800781 93.550781 15 94.898438 16.5 C 96.023438 17.699219 97.074219 19.273438 97.375 20.550781 C 97.601562 21.523438 97.523438 22.425781 97.226562 23.324219 C 96.851562 24.300781 96.023438 25.351562 95.199219 26.175781 C 94.375 27 93.851562 27.375 92.125 28.351562 C 85.75 31.875 55.226562 42.601562 44.648438 47.699219 C 39.175781 50.398438 35.800781 52.273438 32.574219 54.75 C 30.023438 56.625 28.074219 60 26.425781 60.75 C 25.523438 61.199219 24.550781 61.351562 24.023438 60.976562 C 23.425781 60.601562 22.824219 58.949219 23.125 58.273438 C 23.425781 57.601562 24.476562 57.601562 26.050781 57.226562 C 31.449219 55.875 51.023438 53.625 62.5 52.425781 C 72.699219 51.300781 82.675781 50.25 91.601562 49.875 C 99.101562 49.574219 107.648438 49.351562 112.300781 50.101562 C 114.773438 50.398438 115.898438 50.773438 117.851562 51.675781 C 120.398438 52.800781 123.851562 54.523438 125.949219 56.773438 C 128.199219 59.101562 129.851562 62.398438 130.824219 65.476562 C 131.875 68.476562 132.101562 72.148438 132.175781 75 C 132.25 77.25 132.023438 78.898438 131.574219 81.074219 C 131.050781 83.699219 130.300781 86.101562 129.023438 89.398438 C 126.925781 94.648438 123.101562 102.523438 119.273438 109.050781 C 115.074219 116.101562 109 124.273438 104.5 130.050781 C 101.125 134.398438 98.800781 136.949219 95.050781 140.925781 C 90.175781 146.175781 84.101562 152.476562 77.5 158.324219 C 69.773438 165 60.25 172.425781 51.25 178.574219 C 42.398438 184.574219 31.148438 189.75 24.023438 194.625 C 19.074219 198 14.574219 203.699219 12.023438 204.148438 C 11.050781 204.375 10.148438 203.925781 9.699219 203.476562 C 9.398438 203.175781 9.25 202.648438 9.25 202.273438 C 9.324219 201.75 9.699219 200.925781 10.226562 200.550781 C 10.675781 200.25 11.574219 200.175781 12.101562 200.398438 C 12.625 200.625 13.226562 201.300781 13.300781 201.898438 C 13.449219 202.425781 13.074219 203.324219 12.773438 203.699219 C 12.476562 204 12.023438 204.300781 11.648438 204.300781 C 10.976562 204.300781 9.699219 203.699219 9.476562 203.101562 C 9.175781 202.5 9.476562 201.601562 10 200.699219 C 11.273438 198.675781 15.699219 195.976562 19.75 193.273438 C 25.75 189.226562 36.625 183.75 43.300781 179.550781 C 48.476562 176.398438 51.925781 174.074219 56.648438 170.625 C 62.425781 166.425781 69.25 161.101562 75.175781 155.851562 C 81.175781 150.449219 87.699219 143.851562 92.5 138.75 C 96.175781 134.851562 98.5 132.300781 101.800781 128.023438 C 106.226562 122.324219 112.226562 114.300781 116.273438 107.398438 C 120.023438 101.101562 123.699219 93.375 125.726562 88.351562 C 127 85.351562 127.675781 83.101562 128.199219 80.699219 C 128.574219 78.75 128.800781 77.25 128.800781 75.226562 C 128.726562 72.675781 128.574219 69.449219 127.75 66.75 C 126.925781 64.199219 125.574219 61.425781 123.773438 59.398438 C 121.976562 57.449219 119.125 55.949219 116.949219 54.898438 C 115.226562 54.148438 113.726562 53.773438 112 53.476562 C 110.125 53.101562 108.625 52.949219 106 52.875 C 100.675781 52.800781 91.601562 53.101562 82.148438 53.925781 C 68.199219 55.199219 37.675781 61.050781 30.398438 60.976562 C 28.449219 60.976562 27.851562 60.375 26.726562 60.375 C 25.75 60.449219 24.625 61.273438 24.023438 60.976562 C 23.425781 60.675781 22.898438 59.476562 22.976562 58.800781 C 22.976562 58.125 23.425781 57.601562 24.175781 56.773438 C 26.050781 54.75 31.523438 50.925781 36.175781 48.148438 C 41.726562 44.925781 48.25 42.226562 55.523438 39.074219 C 64.523438 35.175781 80.125 29.699219 86.273438 26.773438 C 89.050781 25.5 90.851562 24.601562 92.125 23.550781 C 92.875 22.949219 93.699219 22.5 93.699219 21.75 C 93.773438 20.625 91.976562 18.75 90.625 17.476562 C 89.050781 16.050781 87.324219 15.148438 84.699219 13.949219 C 80.125 11.851562 71.273438 9 64.75 7.425781 C 58.75 5.925781 51.851562 5.101562 46.976562 4.648438 C 43.601562 4.273438 42.023438 4.273438 38.273438 4.199219 C 31.601562 4.050781 16.601562 4.050781 10.148438 4.5 C 6.699219 4.726562 4 6 2.425781 5.398438 C 1.449219 5.101562 0.550781 4.273438 0.550781 3.601562 C 0.476562 2.925781 2.125 1.574219 2.125 1.574219 " clip-rule="nonzero"/></clipPath><clipPath id="47018ac2ed"><rect x="0" width="133" y="0" height="205"/></clipPath></defs><rect x="-37.5" width="450" fill="#ffffff" y="-37.499999" height="449.999989" fill-opacity="1"/><rect x="-37.5" width="450" fill="#0e305d" y="-37.499999" height="449.999989" fill-opacity="1"/><g clip-path="url(#0f30b37546)"><g clip-path="url(#530b9b65b0)"><g transform="matrix(1, 0, 0, 1, 36, 58)"><g clip-path="url(#8df65e35cb)"><g clip-path="url(#5be143d4b3)"><g clip-path="url(#b2742b2070)"><rect x="-118.5" width="540" fill="#ffffff" height="539.999987" y="-140.499998" fill-opacity="1"/></g></g></g></g></g></g><g clip-path="url(#d08e78d7af)"><g clip-path="url(#233d3ecf79)"><g transform="matrix(1, 0, 0, 1, 186, 74)"><g clip-path="url(#c243f80525)"><g clip-path="url(#f8e413ce39)"><g clip-path="url(#dc016be7cf)"><rect x="-268.5" width="540" fill="#ffffff" height="539.999987" y="-156.499998" fill-opacity="1"/></g></g></g></g></g></g><g clip-path="url(#c9308449e2)"><g clip-path="url(#f36c0b7b75)"><g transform="matrix(1, 0, 0, 1, 188, 75)"><g clip-path="url(#47018ac2ed)"><g clip-path="url(#2bc1388db9)"><g clip-path="url(#99287f128f)"><rect x="-270.5" width="540" fill="#ffffff" height="539.999987" y="-157.499998" fill-opacity="1"/></g></g></g></g></g></g></svg>